<?xml version="1.0" encoding="utf-8"?>
<!-- Svg Vector Icons : http://www.onlinewebfonts.com/icon -->
<!DOCTYPE svg PUBLIC "-//W3C//DTD SVG 1.1//EN" "http://www.w3.org/Graphics/SVG/1.1/DTD/svg11.dtd">
<svg version="1.1" xmlns="http://www.w3.org/2000/svg" xmlns:xlink="http://www.w3.org/1999/xlink" x="0px" y="0px" viewBox="0 0 1000 1000" enable-background="new 0 0 1000 1000" xml:space="preserve">
<metadata> Svg Vector Icons : http://www.onlinewebfonts.com/icon </metadata>
<g fill="#023677">
<g transform="translate(0.000000,511.000000) scale(0.100000,-0.100000)"><path d="M5518.1,4992.7c-299.3-21.7-561.3-68.9-663.7-122.1c-342.7-177.2-492.3-265.8-606.5-350.5c-433.2-328.9-736.5-805.4-909.8-1433.6l-53.2-189.1l-11.8-2747.2c-13.8-3056.3-3.9-2873.2-147.7-3164.6c-122.1-250.1-285.5-344.6-586.8-344.6c-157.5,2-301.3,25.6-752.3,131.9c-260,61-476.6,67-596.7,19.7c-110.3-45.3-232.4-185.1-269.8-313.1c-45.3-149.7-39.4-425.4,11.8-592.7c35.4-114.2,59.1-153.6,161.5-256c395.8-393.9,1154-527.8,1874.8-330.8c541.6,147.7,915.7,606.5,1110.7,1370.6c108.3,417.5,120.1,573.1,120.1,1589.2c0,553.4,7.9,925.6,17.7,925.6s114.2-102.4,232.4-228.4c250.1-267.8,391.9-380.1,606.5-482.5c348.6-163.4,963-252.1,1376.5-196.9c970.9,130,1935.8,1049.6,2422.2,2311.9c90.6,234.4,187.1,588.8,230.4,850.7c39.4,230.4,33.5,886.2-9.8,1177.6C8921,3669.4,8446.4,4344.8,7597.6,4717c-263.9,116.2-695.1,230.4-1035.8,277.7C6410.2,5016.4,5835.1,5014.4,5518.1,4992.7z M5951.3,4433.5c1138.2-171.3,1870.8-1195.4,1870.8-2609.3c-2-592.8-102.4-1071.3-324.9-1526.2c-230.4-468.7-535.7-770-913.8-900c-112.2-39.4-167.4-45.3-405.7-45.3c-468.7,2-846.8,116.2-1240.7,374.2c-171.3,112.3-519.9,464.7-638,649.9l-102.4,157.5l7.9,1142.2c5.9,1071.3,9.8,1154,49.2,1325.3c167.4,748.3,527.8,1201.3,1112.7,1404.1C5553.5,4470.9,5671.7,4476.8,5951.3,4433.5z"/></g></g>
</svg>
