<?xml version='1.0' encoding='iso-8859-1'?>
<!DOCTYPE svg PUBLIC '-//W3C//DTD SVG 1.1//EN' 'http://www.w3.org/Graphics/SVG/1.1/DTD/svg11.dtd'>
<svg version="1.1" xmlns="http://www.w3.org/2000/svg" viewBox="0 0 373.854 373.854" xmlns:xlink="http://www.w3.org/1999/xlink" enable-background="new 0 0 373.854 373.854">
  <g fill="#023677">
    <path d="m320.223,175.892c-26.401-37.676-59.497-62.701-95.65-72.956v-30.545h76.017c19.103,0 36.017-12.853 41.133-31.256l6.888-24.771c0.837-3.011 0.218-6.241-1.673-8.729-1.891-2.488-4.837-3.95-7.962-3.95h-304.097c-3.125,0-6.071,1.461-7.962,3.95-1.891,2.488-2.51,5.718-1.673,8.729l6.887,24.771c5.117,18.403 22.031,31.256 41.133,31.256h76.016v30.545c-36.153,10.255-69.249,35.28-95.649,72.956-34.585,49.355-53.631,114.799-53.631,184.276 0,5.523 4.477,10 10,10h353.854c5.522,0 10-4.477 10-10 0-69.477-19.047-134.921-53.631-184.276zm-268.822-140.114l-3.362-12.092h277.776l-3.362,12.092c-2.719,9.782-11.71,16.613-21.863,16.613h-227.325c-10.154,0-19.144-6.832-21.864-16.613zm117.88,36.613h35.292v26.439c-5.828-0.755-11.713-1.151-17.646-1.151-5.933,0-11.818,0.396-17.646,1.152v-26.44zm-149.141,277.777c3.619-129.096 77.046-232.49 166.787-232.49 89.74,0 163.168,103.394 166.787,232.49h-333.574z"/>
    <path d="m186.927,136.381c-53.785,0-97.542,43.757-97.542,97.542 0,53.785 43.757,97.542 97.542,97.542s97.542-43.757 97.542-97.542c0-53.785-43.757-97.542-97.542-97.542zm0,175.085c-42.757,0-77.542-34.785-77.542-77.542 0-42.757 34.785-77.542 77.542-77.542 42.757,0 77.542,34.785 77.542,77.542 0,42.756-34.785,77.542-77.542,77.542z"/>
    <path d="m186.927,168.677c-5.523,0-10,4.477-10,10v55.246c0,5.523 4.477,10 10,10 5.522,0 10-4.477 10-10v-55.246c0-5.522-4.477-10-10-10z"/>
  </g>
</svg>
