<?xml version="1.0" encoding="utf-8"?>
<!-- Generator: Adobe Illustrator 21.0.2, SVG Export Plug-In . SVG Version: 6.00 Build 0)  -->
<svg version="1.1" id="Layer_1" xmlns="http://www.w3.org/2000/svg" xmlns:xlink="http://www.w3.org/1999/xlink" x="0px" y="0px"
	 viewBox="0 0 182 42" style="enable-background:new 0 0 182 42;" xml:space="preserve">
<style type="text/css">
	.st0{fill:#3399FF;}
	.st1{fill:#FFFFFF;}
</style>
<g>
	<path class="st0" d="M46,28.8V11h1.2v11.6l6.8-6.6h1.5l-4.9,4.7l5.5,8.1h-1.3l-5-7.3L47.2,24v4.8H46z"/>
	<path class="st0" d="M59.1,27.4c-1-1.3-1.6-2.9-1.6-5c0-2.1,0.5-3.7,1.6-5c1-1.2,2.4-1.9,4.1-1.9s3.1,0.6,4.1,1.7s1.6,2.7,1.6,4.6
		v0.6H58.7c0,1.7,0.4,3.1,1.2,4.2c0.8,1,1.9,1.6,3.3,1.6c1,0,1.9-0.3,2.8-0.8c0.8-0.6,1.4-1.3,1.7-2.2h1.2c-0.2,1.2-0.8,2.2-1.9,2.9
		c-1.1,0.8-2.3,1.2-3.8,1.2C61.5,29.3,60.1,28.6,59.1,27.4z M67.7,21.3v-0.4c-0.1-1.2-0.6-2.2-1.4-3c-0.9-0.8-1.9-1.2-3.1-1.2
		s-2.2,0.4-3,1.2c-0.9,0.8-1.4,1.9-1.5,3.1v0.3H67.7z"/>
	<path class="st0" d="M72.5,27.4c-1-1.3-1.6-2.9-1.6-5c0-2.1,0.5-3.7,1.6-5c1-1.2,2.4-1.9,4.1-1.9s3.1,0.6,4.1,1.7s1.6,2.7,1.6,4.6
		v0.6H72.2c0,1.7,0.4,3.1,1.2,4.2c0.8,1,1.9,1.6,3.3,1.6c1,0,1.9-0.3,2.8-0.8c0.8-0.6,1.4-1.3,1.7-2.2h1.2c-0.2,1.2-0.8,2.2-1.9,2.9
		c-1.1,0.8-2.3,1.2-3.8,1.2C74.9,29.3,73.6,28.6,72.5,27.4z M81.2,21.3v-0.4c-0.1-1.2-0.6-2.2-1.4-3c-0.9-0.8-1.9-1.2-3.1-1.2
		s-2.2,0.4-3,1.2c-0.9,0.8-1.4,1.9-1.5,3.1v0.3H81.2z"/>
	<path class="st0" d="M85.2,33.6V16h1.2v2.6c0.3-0.9,0.9-1.7,1.7-2.2c0.8-0.6,1.7-0.8,2.6-0.8c1.7,0,3.1,0.6,4.1,1.9
		c1,1.3,1.6,2.9,1.6,5c0,2-0.5,3.6-1.5,4.8c-1,1.2-2.3,1.8-4,1.8c-1,0-1.9-0.3-2.7-0.8c-0.8-0.5-1.4-1.2-1.9-2.1v7.5H85.2z M94,26.6
		c0.8-1.1,1.2-2.5,1.2-4.3s-0.4-3.2-1.2-4.2c-0.8-1.1-1.8-1.6-3.1-1.6c-1.2,0-2.3,0.6-3.1,1.7c-0.9,1.1-1.3,2.5-1.3,4.1
		c0,1.6,0.4,3,1.3,4.1c0.9,1.1,1.9,1.7,3.1,1.7C92.2,28.2,93.2,27.6,94,26.6z"/>
	<path class="st0" d="M99.7,28.8V17.3h-2v-1.2h2v-2.4c0-0.8,0.3-1.4,0.8-1.9c0.5-0.5,1.2-0.8,1.9-0.8h0.7V12h-0.7
		c-0.4,0-0.8,0.2-1.1,0.5c-0.3,0.3-0.5,0.8-0.5,1.3v2.4h2.3v1.2h-2.3v11.5H99.7z"/>
	<path class="st0" d="M106.1,27.2c-1.1-1.2-1.6-2.8-1.6-4.8c0-2.1,0.5-3.7,1.6-5c1.1-1.2,2.5-1.9,4.3-1.9c1.8,0,3.2,0.6,4.3,1.9
		c1.1,1.3,1.6,2.9,1.6,5c0,2-0.5,3.6-1.6,4.8c-1.1,1.2-2.5,1.8-4.3,1.8C108.6,29,107.2,28.4,106.1,27.2z M113.9,26.5
		c0.9-1,1.3-2.4,1.3-4.1c0-1.8-0.4-3.2-1.3-4.2c-0.9-1.1-2-1.6-3.5-1.6c-1.5,0-2.6,0.5-3.5,1.6c-0.9,1-1.3,2.4-1.3,4.2
		c0,1.7,0.4,3.1,1.3,4.1c0.9,1,2,1.5,3.5,1.5C111.9,28,113.1,27.5,113.9,26.5z"/>
	<path class="st0" d="M119.5,28.8V16h1.2v2.9c0.3-0.9,0.8-1.7,1.5-2.2c0.7-0.6,1.4-0.8,2.2-0.8h0.7v1.4c-0.1,0-0.1,0-0.2-0.1
		c-0.1,0-0.1-0.1-0.1-0.1c-0.9,0-1.8,0.4-2.5,1.2c-0.8,0.8-1.2,1.8-1.5,3v7.5H119.5z"/>
	<path class="st0" d="M127.1,28.8V16h1.2v2.2c0.4-0.8,0.9-1.4,1.5-1.8c0.7-0.5,1.4-0.7,2.1-0.7c0.9,0,1.7,0.2,2.4,0.7
		c0.7,0.5,1.1,1.1,1.3,1.9c0.4-0.8,0.9-1.4,1.7-1.9c0.8-0.5,1.6-0.7,2.5-0.7c1.1,0,2.1,0.4,2.9,1.2c0.8,0.8,1.2,1.7,1.2,2.8v9.1
		h-1.2v-9.1c0-0.8-0.3-1.6-0.9-2.2c-0.6-0.6-1.2-0.9-2.1-0.9c-0.9,0-1.8,0.3-2.5,1s-1.2,1.5-1.4,2.5v8.7h-1.2v-9.1
		c0-0.8-0.3-1.6-0.8-2.2s-1.2-0.9-1.9-0.9c-0.9,0-1.7,0.3-2.4,1c-0.7,0.7-1.1,1.6-1.3,2.7v8.4H127.1z"/>
	<path class="st0" d="M148.8,28c-0.9-0.8-1.3-1.7-1.3-2.8V16h1.2v9.1c0,0.8,0.3,1.5,0.9,2.1c0.6,0.6,1.4,0.9,2.2,0.9
		c1,0,2-0.4,2.8-1.2c0.8-0.8,1.3-1.8,1.6-3V16h1.2v12.8h-1.2v-2.2c-0.4,0.8-0.9,1.4-1.7,1.9c-0.8,0.5-1.6,0.7-2.6,0.7
		C150.7,29.1,149.7,28.8,148.8,28z"/>
	<path class="st0" d="M161.3,28.8V11h1.2v17.8H161.3z"/>
	<path class="st0" d="M166.6,28.2c-0.9-0.7-1.3-1.6-1.3-2.6c0-1,0.4-1.8,1.3-2.5c0.9-0.7,1.9-1.1,3.2-1.3c1.3-0.1,2.3-0.3,3.1-0.6
		c0.8-0.3,1.2-0.6,1.2-1v-1.1c0-0.7-0.4-1.2-1.1-1.7c-0.7-0.5-1.6-0.7-2.6-0.7c-1,0-1.8,0.2-2.5,0.7c-0.7,0.5-1,1-1,1.6v0.7h-1.1
		v-0.8c0-0.9,0.4-1.6,1.3-2.2c0.9-0.6,2-0.9,3.3-0.9c1.3,0,2.4,0.3,3.4,0.9c0.9,0.6,1.4,1.3,1.4,2.1v7.7c0,0.5,0.1,0.9,0.3,1.3
		c0.2,0.4,0.5,0.5,0.8,0.5c0.1,0,0.2,0,0.3,0c0.1,0,0.1,0,0.2-0.1v0.6c-0.3,0.1-0.7,0.2-1.1,0.2c-0.5,0-0.9-0.2-1.2-0.6
		c-0.3-0.4-0.5-0.9-0.5-1.4c-0.2,0.7-0.8,1.2-1.5,1.6c-0.8,0.4-1.7,0.6-2.7,0.6C168.6,29.3,167.5,28.9,166.6,28.2z M172.6,27.3
		c0.8-0.7,1.3-1.5,1.5-2.6v-2.9c-0.3,0.2-0.8,0.4-1.5,0.6c-0.7,0.2-1.6,0.3-2.8,0.4c-0.9,0.1-1.7,0.4-2.4,1c-0.6,0.5-1,1.2-1,1.9
		c0,0.8,0.3,1.4,1,1.9c0.6,0.5,1.4,0.8,2.3,0.8C170.9,28.4,171.8,28,172.6,27.3z"/>
</g>
<path class="st0" d="M35,39.2H7.2C4.9,39.2,3,37.3,3,35V7.2C3,4.9,4.9,3,7.2,3H35c2.3,0,4.2,1.9,4.2,4.2V35
	C39.2,37.3,37.3,39.2,35,39.2z"/>
<g>
	<path class="st1" d="M14,32V7.7h2.7v14l7.9-7.6h4l-6.8,6.5L28.9,32h-3.3l-5.8-9.4l-3,2.9V32H14z"/>
</g>
</svg>
