<?xml version="1.0" encoding="iso-8859-1"?>
<!-- Generator: Adobe Illustrator 16.0.0, SVG Export Plug-In . SVG Version: 6.00 Build 0)  -->
<!DOCTYPE svg PUBLIC "-//W3C//DTD SVG 1.1//EN" "http://www.w3.org/Graphics/SVG/1.1/DTD/svg11.dtd">
<svg version="1.1" id="Capa_1" xmlns="http://www.w3.org/2000/svg" xmlns:xlink="http://www.w3.org/1999/xlink" x="0px" y="0px"
width="367.319px" height="367.319px" viewBox="0 0 367.319 367.319" style="enable-background:new 0 0 367.319 367.319;"
xml:space="preserve">
<g fill="#0066CC">
<path d="M367.319,281.257V46.649H0v234.608h139.427v17.464c-39.324,1.867-66.496,5.802-66.496,10.387
c0,6.38,52.663,11.562,117.642,11.562c64.98,0,117.644-5.183,117.644-11.562c0-5.098-33.651-9.412-80.318-10.943v-16.907H367.319z
M24.121,261.151V64.747h319.066v196.404H24.121z M183.66,72.194l39.308,39.309l-7.316,7.311L183.66,86.818l-31.988,31.995
l-7.319-7.311L183.66,72.194z M215.651,205.364l7.316,7.316l-39.308,39.3l-39.307-39.312l7.319-7.311l31.988,32L215.651,205.364z
M302.795,132.211l39.305,39.303l-39.305,39.317l-7.316-7.328l31.998-31.989l-31.998-31.989L302.795,132.211z M72.583,139.525
l-31.995,31.989l31.995,31.989l-7.31,7.328l-39.309-39.317l39.309-39.303L72.583,139.525z"/>
</g>
</svg>
