<?xml version="1.0" encoding="iso-8859-1"?>
<svg version="1.1" id="Capa_1" xmlns="http://www.w3.org/2000/svg" xmlns:xlink="http://www.w3.org/1999/xlink" x="0px" y="0px"
viewBox="0 0 512 512" style="enable-background:new 0 0 512 512;" xml:space="preserve">
<g fill="#0066CC">
<path d="M494.933,409.6H102.4V17.067C102.389,7.645,94.755,0.011,85.333,0H17.067C7.645,0.011,0.011,7.645,0,17.067v477.867
c0.011,9.421,7.645,17.056,17.067,17.067h477.867c9.421-0.011,17.056-7.645,17.067-17.067v-68.267
C511.989,417.245,504.355,409.611,494.933,409.6z M85.333,17.067v25.6H51.2c-4.713,0-8.533,3.82-8.533,8.533
s3.82,8.533,8.533,8.533h34.133V76.8H68.267c-4.713,0-8.533,3.82-8.533,8.533s3.82,8.533,8.533,8.533h17.067v17.067H68.267
c-4.713,0-8.533,3.82-8.533,8.533S63.554,128,68.267,128h17.067v17.067H68.267c-4.713,0-8.533,3.821-8.533,8.533
c0,4.713,3.82,8.533,8.533,8.533h17.067V179.2H68.267c-4.713,0-8.533,3.82-8.533,8.533s3.82,8.533,8.533,8.533h17.067v17.067
H51.2c-4.713,0-8.533,3.82-8.533,8.533s3.82,8.533,8.533,8.533h34.133v17.067H68.267c-4.713,0-8.533,3.82-8.533,8.533
s3.82,8.533,8.533,8.533h17.067V281.6H68.267c-4.713,0-8.533,3.82-8.533,8.533s3.82,8.533,8.533,8.533h17.067v17.067H68.267
c-4.713,0-8.533,3.82-8.533,8.533s3.82,8.533,8.533,8.533h17.067v17.067H68.267c-4.713,0-8.533,3.82-8.533,8.533
s3.82,8.533,8.533,8.533h17.067V384H51.2c-4.713,0-8.533,3.821-8.533,8.533c0,4.713,3.82,8.533,8.533,8.533h34.133v8.533
c0.002,1.525,0.222,2.995,0.599,4.402l-68.865,68.865V17.067H85.333z M494.933,494.933h-465.8l68.865-68.865
c1.407,0.376,2.877,0.597,4.402,0.599l8.533,0V460.8c-0.001,2.263,0.898,4.434,2.499,6.035c1.6,1.6,3.771,2.499,6.035,2.499
c2.263,0.001,4.434-0.898,6.035-2.499c1.6-1.6,2.499-3.771,2.499-6.035v-34.134l17.067-0.001v17.068
c-0.001,2.263,0.898,4.434,2.499,6.035c1.6,1.6,3.771,2.499,6.035,2.499c2.263,0.001,4.434-0.898,6.035-2.499
c1.6-1.6,2.499-3.771,2.499-6.035v-17.069l17.067-0.001v17.069c-0.001,2.263,0.898,4.434,2.499,6.035
c1.6,1.6,3.771,2.499,6.035,2.499c2.263,0.001,4.434-0.898,6.035-2.499c1.6-1.6,2.499-3.771,2.499-6.035v-17.07l17.067-0.001
v17.07c-0.001,2.263,0.898,4.434,2.499,6.035c1.6,1.6,3.771,2.499,6.035,2.499c2.263,0.001,4.434-0.898,6.035-2.499
c1.6-1.6,2.499-3.771,2.499-6.035v-17.071l17.067,0v17.071c-0.001,2.263,0.898,4.434,2.499,6.035
c1.6,1.6,3.771,2.499,6.035,2.499c2.263,0.001,4.434-0.898,6.035-2.499c1.6-1.6,2.499-3.771,2.499-6.035v-17.072l17.067-0.001
V460.8c-0.001,2.263,0.898,4.434,2.499,6.035c1.6,1.6,3.771,2.499,6.035,2.499c2.263,0.001,4.434-0.898,6.035-2.499
c1.6-1.6,2.499-3.771,2.499-6.035v-34.14l17.067-0.001v17.073c-0.001,2.263,0.898,4.434,2.499,6.035
c1.6,1.6,3.771,2.499,6.035,2.499c2.263,0.001,4.434-0.898,6.035-2.499c1.6-1.6,2.499-3.771,2.499-6.035v-17.074l17.067-0.001
v17.075c-0.001,2.263,0.898,4.434,2.499,6.035c1.6,1.6,3.771,2.499,6.035,2.499c2.263,0.001,4.434-0.898,6.035-2.499
c1.6-1.6,2.499-3.771,2.499-6.035v-17.075L384,426.658v17.076c-0.001,2.263,0.898,4.434,2.499,6.035
c1.6,1.6,3.771,2.499,6.035,2.499c2.263,0.001,4.434-0.898,6.035-2.499c1.6-1.6,2.499-3.771,2.499-6.035v-17.076l17.067-0.001
v17.077c-0.001,2.263,0.898,4.434,2.499,6.035c1.6,1.6,3.771,2.499,6.035,2.499c2.263,0.001,4.434-0.898,6.035-2.499
c1.6-1.6,2.499-3.771,2.499-6.035v-17.077l17.067-0.001V460.8c-0.001,2.263,0.898,4.434,2.499,6.035
c1.6,1.6,3.771,2.499,6.035,2.499c2.263,0.001,4.434-0.898,6.035-2.499c1.6-1.6,2.499-3.771,2.499-6.035v-34.145l25.6-0.001
V494.933z"/>
<path d="M507.442,86.317L345.308,0.983c-2.489-1.308-5.461-1.308-7.95,0L175.225,86.317c-2.802,1.477-4.557,4.383-4.558,7.55
v170.667c0.002,3.167,1.756,6.074,4.558,7.55l162.067,85.298c0.018,0.009,0.036,0.019,0.053,0.028l0.013,0.007
c0.011,0.006,0.023,0.01,0.034,0.016c0.268,0.14,0.544,0.262,0.825,0.372c0.085,0.034,0.172,0.062,0.258,0.092
c0.215,0.077,0.433,0.145,0.654,0.205c0.1,0.027,0.199,0.052,0.3,0.075c0.222,0.051,0.447,0.091,0.673,0.124
c0.092,0.014,0.184,0.031,0.277,0.041c0.316,0.035,0.634,0.058,0.954,0.058c0.321,0,0.639-0.023,0.954-0.058
c0.093-0.01,0.185-0.028,0.277-0.041c0.226-0.033,0.451-0.073,0.672-0.124c0.101-0.023,0.2-0.049,0.3-0.075
c0.221-0.059,0.439-0.128,0.654-0.204c0.086-0.031,0.173-0.059,0.258-0.092c0.281-0.11,0.557-0.233,0.825-0.372
c0.011-0.006,0.023-0.01,0.034-0.016l0.013-0.007c0.018-0.009,0.036-0.019,0.053-0.028l162.067-85.298
c2.802-1.477,4.557-4.383,4.558-7.55V93.867C511.998,90.699,510.244,87.793,507.442,86.317z M341.333,18.175l148.974,78.407
l-148.966,86.327L192.36,96.582L341.333,18.175z M187.733,113.622l145.067,84.06v138.052l-145.067-76.35V113.622z
M349.867,335.734V197.679c0.003-0.002,0.006-0.003,0.008-0.005l145.058-84.053v145.762L349.867,335.734z"/>
</g>
</svg>
