<?xml version="1.0"?>
<svg xmlns="http://www.w3.org/2000/svg" viewBox="-53 1 511 511.998" width="512px" height="512px"><g><path d="m67.082031 497h-51.582031v-482h289.84375c4.140625 0 7.5-3.359375 7.5-7.5s-3.359375-7.5-7.5-7.5h-297.34375c-4.144531 0-7.5 3.359375-7.5 7.5v497c0 4.140625 3.355469 7.5 7.5 7.5h59.082031c4.144531 0 7.5-3.359375 7.5-7.5s-3.355469-7.5-7.5-7.5zm0 0" data-original="#000000" class="active-path" data-old_color="#000000" fill="#0066CC"/><path d="m397.257812 0h-62.753906c-4.140625 0-7.5 3.359375-7.5 7.5s3.359375 7.5 7.5 7.5h55.253906v482h-292.128906c-4.140625 0-7.5 3.359375-7.5 7.5s3.359375 7.5 7.5 7.5h299.628906c4.140626 0 7.5-3.359375 7.5-7.5v-497c0-4.140625-3.359374-7.5-7.5-7.5zm0 0" data-original="#000000" class="active-path" data-old_color="#000000" fill="#0066CC"/><path d="m367.878906 375.90625v-329.652344c0-4.144531-3.359375-7.5-7.5-7.5h-311.109375c-4.140625 0-7.5 3.355469-7.5 7.5v329.652344c0 4.140625 3.359375 7.5 7.5 7.5h311.109375c4.140625 0 7.5-3.359375 7.5-7.5zm-51.746094-251.421875h36.746094v19.75h-36.746094zm36.746094-70.730469v55.730469h-36.746094v-16.835937c0-4.140626-3.359374-7.5-7.5-7.5h-60.824218c-4.140625 0-7.5 3.359374-7.5 7.5v16.835937h-183.539063v-55.730469zm-82.617187 177.367188v-31.917969h15.921875v31.917969zm-14.953125-46.917969v-84.050781h45.824218v84.050781zm-15-39.96875h-183.539063v-19.75h183.539063zm79.53125 224.171875h-230.027344v-21.488281h230.027344zm15 0v-28.988281c0-4.144531-3.359375-7.5-7.5-7.5h-245.027344c-4.140625 0-7.5 3.355469-7.5 7.5v28.988281h-18.042969v-209.171875h183.539063v32.46875c0 4.140625 3.359375 7.5 7.5 7.5h7.453125v39.417969c0 4.140625 3.359375 7.5 7.5 7.5h7.960937v4.5c0 4.140625 3.359375 7.5 7.5 7.5s7.5-3.359375 7.5-7.5v-4.5h7.960938c4.140625 0 7.5-3.359375 7.5-7.5v-39.417969h7.449218c4.140626 0 7.5-3.359375 7.5-7.5v-32.46875h36.746094v209.171875zm0 0" data-original="#000000" class="active-path" data-old_color="#000000" fill="#0066CC"/><path d="m278.222656 281.683594c-4.144531 0-7.5 3.355468-7.5 7.5v4.5h-4.5c-4.144531 0-7.5 3.355468-7.5 7.5 0 4.140625 3.355469 7.5 7.5 7.5h12c4.140625 0 7.5-3.359375 7.5-7.5v-12c0-4.144532-3.359375-7.5-7.5-7.5zm0 0" data-original="#000000" class="active-path" data-old_color="#000000" fill="#0066CC"/><path d="m188.613281 293.683594h-19.8125c-4.140625 0-7.5 3.355468-7.5 7.5 0 4.140625 3.359375 7.5 7.5 7.5h19.8125c4.144531 0 7.5-3.359375 7.5-7.5 0-4.144532-3.355469-7.5-7.5-7.5zm0 0" data-original="#000000" class="active-path" data-old_color="#000000" fill="#0066CC"/><path d="m237.324219 293.683594h-19.8125c-4.144531 0-7.5 3.355468-7.5 7.5 0 4.140625 3.355469 7.5 7.5 7.5h19.8125c4.144531 0 7.5-3.359375 7.5-7.5 0-4.144532-3.355469-7.5-7.5-7.5zm0 0" data-original="#000000" class="active-path" data-old_color="#000000" fill="#0066CC"/><path d="m139.902344 293.683594h-12c-4.140625 0-7.5 3.355468-7.5 7.5 0 4.140625 3.359375 7.5 7.5 7.5h12c4.144531 0 7.5-3.359375 7.5-7.5 0-4.144532-3.355469-7.5-7.5-7.5zm0 0" data-original="#000000" class="active-path" data-old_color="#000000" fill="#0066CC"/><path d="m61.777344 433.160156c-1.398438 1.398438-2.199219 3.328125-2.199219 5.308594 0 1.972656.800781 3.902344 2.199219 5.300781 1.402344 1.390625 3.332031 2.191407 5.3125 2.191407 1.96875 0 3.898437-.800782 5.296875-2.191407 1.390625-1.398437 2.191406-3.328125 2.191406-5.300781 0-1.980469-.800781-3.910156-2.191406-5.308594-1.398438-1.390625-3.328125-2.191406-5.296875-2.191406-1.980469 0-3.910156.800781-5.3125 2.191406zm0 0" data-original="#000000" class="active-path" data-old_color="#000000" fill="#0066CC"/><path d="m109.570312 433.160156c-1.402343 1.398438-2.203124 3.328125-2.203124 5.308594 0 1.972656.800781 3.902344 2.203124 5.300781 1.386719 1.390625 3.328126 2.191407 5.296876 2.191407 1.980468 0 3.910156-.800782 5.3125-2.191407 1.390624-1.398437 2.1875-3.328125 2.1875-5.300781 0-1.980469-.796876-3.910156-2.1875-5.308594-1.402344-1.390625-3.332032-2.191406-5.3125-2.191406-1.96875 0-3.898438.800781-5.296876 2.191406zm0 0" data-original="#000000" class="active-path" data-old_color="#000000" fill="#0066CC"/><path d="m157.359375 433.160156c-1.402344 1.398438-2.199219 3.328125-2.199219 5.300782 0 1.980468.796875 3.910156 2.199219 5.308593 1.390625 1.390625 3.328125 2.191407 5.300781 2.191407 1.96875 0 3.910156-.800782 5.296875-2.191407 1.402344-1.398437 2.203125-3.328125 2.203125-5.308593 0-1.972657-.800781-3.902344-2.203125-5.300782-1.386719-1.390625-3.328125-2.199218-5.296875-2.199218-1.972656 0-3.910156.808593-5.300781 2.199218zm0 0" data-original="#000000" class="active-path" data-old_color="#000000" fill="#0066CC"/></g> </svg>
