<?xml version="1.0" encoding="iso-8859-1"?>
<!-- Generator: Adobe Illustrator 19.0.0, SVG Export Plug-In . SVG Version: 6.00 Build 0)  -->
<svg version="1.1" id="Capa_1" xmlns="http://www.w3.org/2000/svg" xmlns:xlink="http://www.w3.org/1999/xlink" x="0px" y="0px"
	 viewBox="0 0 500.592 500.592" style="enable-background:new 0 0 500.592 500.592;" xml:space="preserve">
<g>
	<g>
		<g>
			<path d="M284.44,468.592c-1.299-31.591-8.501-62.659-21.232-91.6l-29.248,12.976c10.921,24.856,17.184,51.506,18.48,78.624
				H50.552l59.008-196.704c26.971,10.351,51.702,25.788,72.848,45.472l21.936-23.312c-24.778-23.057-53.861-41-85.584-52.8
				l69.616-232L157.72,0L7.544,500.592h485.504v-32H284.44z"/>
			<path d="M357.048,372.592c30.928,0,56-25.072,56-56c0-30.928-25.072-56-56-56c-30.928,0-56,25.072-56,56
				C301.048,347.52,326.12,372.592,357.048,372.592z M357.048,292.592c13.255,0,24,10.745,24,24s-10.745,24-24,24s-24-10.745-24-24
				S343.793,292.592,357.048,292.592z"/>
			<path d="M220.056,363.552l27.28-16.752c-5.968-9.69-12.564-18.979-19.744-27.808l-24.816,20.192
				C209.065,346.918,214.837,355.059,220.056,363.552z"/>
		</g>
	</g>
</g>
<g>
</g>
<g>
</g>
<g>
</g>
<g>
</g>
<g>
</g>
<g>
</g>
<g>
</g>
<g>
</g>
<g>
</g>
<g>
</g>
<g>
</g>
<g>
</g>
<g>
</g>
<g>
</g>
<g>
</g>
</svg>
