<?xml version="1.0" standalone="no"?>
<!DOCTYPE svg PUBLIC "-//W3C//DTD SVG 1.1//EN" "http://www.w3.org/Graphics/SVG/1.1/DTD/svg11.dtd">
<svg class="icon" height="512" viewBox="0 0 1024 1024" version="1.1" xmlns="http://www.w3.org/2000/svg">
<path fill="#0066CC" d="M849.408 880.128 163.328 880.128c-10.752 0-19.968-8.704-19.968-19.968l0-685.568c0-10.752 8.704-19.968 19.968-19.968l343.04 0c10.752 0 19.968 8.704 19.968 19.968s-8.704 19.968-19.968 19.968L183.296 194.56l0 646.144L829.44 840.704 829.44 517.12c0-10.752 8.704-19.968 19.968-19.968 10.752 0 19.968 8.704 19.968 19.968l0 343.04C868.864 870.912 860.16 880.128 849.408 880.128zM288.768 370.176l39.424 0 4.608 46.08 2.048 0c28.672-30.72 61.44-54.784 98.816-54.784 50.688 0 74.752 24.064 88.064 61.44 35.328-37.376 68.096-61.44 105.472-61.44 66.048 0 96.768 44.032 96.768 125.44l0 202.24L675.84 689.152 675.84 493.056c0-61.44-19.968-88.064-61.44-88.064-26.624 0-52.736 17.408-83.456 52.736l0 232.96-48.128 0L482.816 495.104c0-61.44-19.968-88.064-61.44-88.064-24.064 0-52.736 17.408-83.456 52.736l0 232.96-48.128 0L288.768 370.176zM741.376 346.112c68.096-59.392 98.816-103.424 98.816-138.24 0-24.064-13.312-44.032-39.424-44.032-17.408 0-32.768 10.752-46.08 26.624l-13.312-13.312c17.408-17.408 35.328-30.72 61.44-30.72 37.376 0 61.44 24.064 61.44 61.44 0 44.032-32.768 88.064-85.504 136.192 10.752-2.048 24.064-2.048 35.328-2.048l61.44 0 0 19.968-132.096 0 0-15.36L741.376 346.624z" />
</svg>
