<?xml version="1.0" encoding="iso-8859-1"?>
<!-- Generator: Adobe Illustrator 19.0.0, SVG Export Plug-In . SVG Version: 6.00 Build 0)  -->
<svg version="1.1" id="Capa_1" xmlns="http://www.w3.org/2000/svg" xmlns:xlink="http://www.w3.org/1999/xlink" x="0px" y="0px"
	 viewBox="0 0 494.154 494.154" style="enable-background:new 0 0 494.154 494.154;" xml:space="preserve">
<g fill="#0066CC">
	<g>
		<path d="M247.088,202.154c-125.951,0-224.615-44.397-224.615-101.077S121.137,0,247.088,0s224.615,44.397,224.615,101.077
			S373.039,202.154,247.088,202.154z M247.088,22.462c-119.13,0-202.154,41.435-202.154,78.615s83.024,78.615,202.154,78.615
			s202.154-41.435,202.154-78.615S366.217,22.462,247.088,22.462z"/>
		<path d="M247.066,494.154c-125.951,0-224.615-44.397-224.615-101.077v-292c0-6.208,5.023-11.231,11.231-11.231
			s11.231,5.023,11.231,11.231v89.846c0,37.18,83.024,78.615,202.154,78.615s202.154-41.435,202.154-78.615v-89.846
			c0-6.208,5.023-11.231,11.231-11.231c6.208,0,11.231,5.023,11.231,11.231v292C471.681,449.757,373.017,494.154,247.066,494.154z
			 M44.912,336.791v56.285c0,37.18,83.024,78.615,202.154,78.615s202.154-41.435,202.154-78.615v-56.285
			c-36.083,33.626-112.154,56.285-202.154,56.285S81.006,370.418,44.912,336.791z M44.912,292c0,37.18,83.024,78.615,202.154,78.615
			S449.22,329.18,449.22,292v-56.285C413.137,269.341,337.066,292,247.066,292s-166.06-22.659-202.154-56.285V292z"/>
	</g>
</g>
<g>
</g>
<g>
</g>
<g>
</g>
<g>
</g>
<g>
</g>
<g>
</g>
<g>
</g>
<g>
</g>
<g>
</g>
<g>
</g>
<g>
</g>
<g>
</g>
<g>
</g>
<g>
</g>
<g>
</g>
</svg>
