<?xml version="1.0" encoding="iso-8859-1"?>
<!-- Generator: Adobe Illustrator 18.0.0, SVG Export Plug-In . SVG Version: 6.00 Build 0)  -->
<!DOCTYPE svg PUBLIC "-//W3C//DTD SVG 1.1//EN" "http://www.w3.org/Graphics/SVG/1.1/DTD/svg11.dtd">
<svg version="1.1" id="Capa_1" xmlns="http://www.w3.org/2000/svg" xmlns:xlink="http://www.w3.org/1999/xlink" x="0px" y="0px"
	 viewBox="0 0 487.992 487.992" style="enable-background:new 0 0 487.992 487.992;" xml:space="preserve">
<path d="M477.992,97.281H90.041c-5.522,0-10,4.477-10,10v31.445c0,5.523,4.478,10,10,10h30.364l-62.5,128.936
	c-3.528-0.851-7.206-1.313-10.991-1.313C21.045,276.348,0,297.393,0,323.261s21.045,46.913,46.913,46.913
	s46.913-21.045,46.913-46.913c0-14.937-7.026-28.256-17.937-36.854l66.74-137.682h57.56v149.243
	c-21.078,4.596-36.913,23.394-36.913,45.83c0,25.868,21.045,46.913,46.913,46.913c14.972,0,28.318-7.058,36.913-18.013
	c8.595,10.955,21.941,18.013,36.913,18.013s28.318-7.058,36.913-18.013c8.595,10.955,21.941,18.013,36.913,18.013
	s28.318-7.058,36.913-18.013c8.595,10.955,21.941,18.013,36.913,18.013c25.868,0,46.913-21.045,46.913-46.913
	c0-22.436-15.835-41.233-36.913-45.83V148.725h36.323c5.522,0,10-4.477,10-10v-31.445
	C487.992,101.758,483.514,97.281,477.992,97.281z M46.913,350.174c-14.84,0-26.913-12.073-26.913-26.913
	s12.073-26.913,26.913-26.913s26.913,12.073,26.913,26.913S61.753,350.174,46.913,350.174z M274.016,148.725v149.243
	c-10.841,2.364-20.288,8.486-26.913,16.929c-6.625-8.443-16.072-14.565-26.913-16.929V148.725H274.016z M347.842,297.969
	c-10.841,2.364-20.288,8.486-26.913,16.929c-6.625-8.443-16.072-14.565-26.913-16.929V148.725h53.826V297.969z M210.19,370.711
	c-14.84,0-26.913-12.073-26.913-26.913s12.073-26.913,26.913-26.913s26.913,12.073,26.913,26.913S225.03,370.711,210.19,370.711z
	 M284.016,370.711c-14.84,0-26.913-12.073-26.913-26.913s12.073-26.913,26.913-26.913s26.913,12.073,26.913,26.913
	S298.856,370.711,284.016,370.711z M357.842,370.711c-14.84,0-26.913-12.073-26.913-26.913s12.073-26.913,26.913-26.913
	s26.913,12.073,26.913,26.913S372.682,370.711,357.842,370.711z M458.582,343.798c0,14.84-12.073,26.913-26.913,26.913
	s-26.913-12.073-26.913-26.913s12.073-26.913,26.913-26.913S458.582,328.958,458.582,343.798z M421.668,297.969
	c-10.841,2.364-20.288,8.486-26.913,16.929c-6.625-8.443-16.072-14.565-26.913-16.929V148.725h53.826V297.969z M467.992,128.725
	H100.041v-11.445h367.951V128.725z"/>
<g>
</g>
<g>
</g>
<g>
</g>
<g>
</g>
<g>
</g>
<g>
</g>
<g>
</g>
<g>
</g>
<g>
</g>
<g>
</g>
<g>
</g>
<g>
</g>
<g>
</g>
<g>
</g>
<g>
</g>
</svg>
