<?xml version="1.0" encoding="iso-8859-1"?>
<!-- Generator: Adobe Illustrator 16.0.0, SVG Export Plug-In . SVG Version: 6.00 Build 0)  -->
<!DOCTYPE svg PUBLIC "-//W3C//DTD SVG 1.1//EN" "http://www.w3.org/Graphics/SVG/1.1/DTD/svg11.dtd">
<svg version="1.1" id="Capa_1" xmlns="http://www.w3.org/2000/svg" xmlns:xlink="http://www.w3.org/1999/xlink" x="0px" y="0px"
	 width="84.05px" height="84.05px" viewBox="0 0 84.05 84.05" style="enable-background:new 0 0 84.05 84.05;" xml:space="preserve"
	>
<g>
	<path d="M81.249,0H2.802C1.251,0,0,1.255,0,2.802v78.446c0,1.542,1.251,2.802,2.802,2.802h78.447c1.556,0,2.802-1.26,2.802-2.802
		V2.802C84.05,1.255,82.804,0,81.249,0z M78.447,78.446H5.604V43.042h21.001l7.407,23.021c0.364,1.159,1.447,1.942,2.661,1.942
		c0.033,0,0.068,0,0.101-0.005c1.256-0.04,2.321-0.904,2.635-2.118l8.098-32.482l1.544,10.802c0.196,1.378,1.379,2.406,2.779,2.406
		h17.83c1.541,0,2.802-1.258,2.802-2.802c0-1.548-1.261-2.802-2.802-2.802H54.261l-3.216-22.555
		c-0.187-1.327-1.294-2.331-2.64-2.402c-1.281-0.068-2.539,0.815-2.865,2.118l-9.208,36.827l-5.021-15.617
		c-0.364-1.156-1.445-1.945-2.661-1.945H5.604V5.603h72.843V78.446z"/>
</g>
<g>
</g>
<g>
</g>
<g>
</g>
<g>
</g>
<g>
</g>
<g>
</g>
<g>
</g>
<g>
</g>
<g>
</g>
<g>
</g>
<g>
</g>
<g>
</g>
<g>
</g>
<g>
</g>
<g>
</g>
</svg>
