<?xml version="1.0" encoding="utf-8"?>
<!-- Svg Vector Icons : http://www.onlinewebfonts.com/icon -->
<!DOCTYPE svg PUBLIC "-//W3C//DTD SVG 1.1//EN" "http://www.w3.org/Graphics/SVG/1.1/DTD/svg11.dtd">
<svg version="1.1" xmlns="http://www.w3.org/2000/svg" xmlns:xlink="http://www.w3.org/1999/xlink" x="0px" y="0px" viewBox="0 0 1000 1000" enable-background="new 0 0 1000 1000" xml:space="preserve">
<metadata> Svg Vector Icons : http://www.onlinewebfonts.com/icon </metadata>
<g><path d="M956.7,583.1H769.2l-83.7-444.4c-3-16.1-17.2-27.3-33-27.1c-15.1-0.2-28.9,10-32.7,25.2L469.9,735.5l-91.2-277.8c-4.7-14.3-18.2-23.3-32.5-22.9c-0.2,0-0.5,0-0.7,0H43.3c-18.4,0-33.3,14.9-33.3,33.3c0,18.4,14.9,33.3,33.3,33.3h279.6l119.6,364.1c5.7,17.5,24.6,27,42.1,21.3c1.9-0.6,3.8-1.4,5.5-2.4c0.1,0,0.2-0.1,0.3-0.1c0.3-0.1,0.5-0.3,0.7-0.4c7.6-4.4,13.4-11.6,15.7-20.8l141.2-564.1l60.8,322.5c2.1,14.2,13.2,25.4,27.3,27.8c0.1,0,0.2,0,0.2,0c0.4,0.1,0.8,0.1,1.2,0.2c0.2,0,0.4,0,0.5,0.1c0.3,0,0.6,0.1,0.9,0.1c0.3,0,0.5,0,0.8,0.1c0.3,0,0.6,0,0.8,0c0.3,0,0.6,0,0.9,0c0.1,0,0.2,0,0.3,0h215.1c18.4,0,33.3-14.9,33.3-33.3C990,598,975.1,583.1,956.7,583.1z"/></g>
</svg>