<?xml version="1.0" standalone="no"?><!DOCTYPE svg PUBLIC "-//W3C//DTD SVG 1.1//EN" "http://www.w3.org/Graphics/SVG/1.1/DTD/svg11.dtd"><svg class="icon" height="512" viewBox="0 0 1024 1024" version="1.1" xmlns="http://www.w3.org/2000/svg"><path d="M232 968l-192-192 736-736 192 192-736 736z m-147.2-192l147.2 147.2 689.6-689.6-147.2-147.2L84.8 776z" fill="" /><path d="M875.2 308.8c-3.2 0-8-1.6-11.2-4.8l-104-96c-6.4-6.4-6.4-16-1.6-22.4 6.4-6.4 16-6.4 22.4-1.6l104 96c6.4 6.4 6.4 16 1.6 22.4-3.2 4.8-6.4 6.4-11.2 6.4zM809.6 384c-4.8 0-8-1.6-11.2-4.8l-56-56c-6.4-6.4-6.4-16 0-22.4s16-6.4 22.4 0l56 56c6.4 6.4 6.4 16 0 22.4-3.2 3.2-8 4.8-11.2 4.8zM747.2 436.8c-3.2 0-8-1.6-11.2-4.8l-104-96c-6.4-6.4-6.4-16-1.6-22.4 6.4-6.4 16-6.4 22.4-1.6l104 96c6.4 6.4 6.4 16 1.6 22.4-3.2 4.8-6.4 6.4-11.2 6.4zM681.6 512c-4.8 0-8-1.6-11.2-4.8l-56-56c-6.4-6.4-6.4-16 0-22.4s16-6.4 22.4 0l56 56c6.4 6.4 6.4 16 0 22.4-3.2 3.2-8 4.8-11.2 4.8zM619.2 564.8c-3.2 0-8-1.6-11.2-4.8l-104-96c-6.4-6.4-6.4-16-1.6-22.4 6.4-6.4 16-6.4 22.4-1.6l104 96c6.4 6.4 6.4 16 1.6 22.4-3.2 4.8-6.4 6.4-11.2 6.4zM553.6 640c-4.8 0-8-1.6-11.2-4.8l-56-56c-6.4-6.4-6.4-16 0-22.4s16-6.4 22.4 0l56 56c6.4 6.4 6.4 16 0 22.4-3.2 3.2-8 4.8-11.2 4.8zM491.2 692.8c-3.2 0-8-1.6-11.2-4.8l-104-96c-6.4-6.4-6.4-16-1.6-22.4 6.4-6.4 16-6.4 22.4-1.6l104 96c6.4 6.4 6.4 16 1.6 22.4-3.2 4.8-6.4 6.4-11.2 6.4zM425.6 768c-4.8 0-8-1.6-11.2-4.8l-56-56c-6.4-6.4-6.4-16 0-22.4s16-6.4 22.4 0l56 56c6.4 6.4 6.4 16 0 22.4-3.2 3.2-8 4.8-11.2 4.8zM363.2 820.8c-3.2 0-8-1.6-11.2-4.8l-104-96c-6.4-6.4-6.4-16-1.6-22.4 6.4-6.4 16-6.4 22.4-1.6l104 96c6.4 6.4 6.4 16 1.6 22.4-3.2 4.8-6.4 6.4-11.2 6.4zM297.6 896c-4.8 0-8-1.6-11.2-4.8l-56-56c-6.4-6.4-6.4-16 0-22.4s16-6.4 22.4 0l56 56c6.4 6.4 6.4 16 0 22.4-3.2 3.2-8 4.8-11.2 4.8z" fill="" /></svg>