<?xml version="1.0" encoding="iso-8859-1"?>
<!-- Generator: Adobe Illustrator 19.0.0, SVG Export Plug-In . SVG Version: 6.00 Build 0)  -->
<svg version="1.1" id="Capa_1" xmlns="http://www.w3.org/2000/svg" xmlns:xlink="http://www.w3.org/1999/xlink" x="0px" y="0px"
	 viewBox="0 0 490 490" style="enable-background:new 0 0 490 490;" xml:space="preserve">
<path id="XMLID_14_" d="M245,155c-24.813,0-45,20.187-45,45c0,19.556,12.539,36.239,30,42.43V325c0,8.284,6.716,15,15,15
	s15-6.716,15-15v-82.57c17.461-6.191,30-22.874,30-42.43C290,175.187,269.813,155,245,155z M245,215c-8.271,0-15-6.729-15-15
	s6.729-15,15-15s15,6.729,15,15S253.271,215,245,215z M357.018,270.003c-2.223,0-4.479-0.496-6.609-1.543
	c-7.434-3.657-10.495-12.647-6.839-20.081c7.44-15.126,11.213-31.403,11.213-48.379c0-60.534-49.248-109.783-109.782-109.783
	S135.218,139.466,135.218,200c0,16.977,3.772,33.253,11.213,48.379c3.656,7.434,0.595,16.424-6.839,20.081
	c-7.438,3.657-16.425,0.595-20.081-6.839c-9.484-19.281-14.293-40.013-14.293-61.621c0-77.077,62.706-139.783,139.782-139.783
	S384.782,122.923,384.782,200c0,21.607-4.809,42.34-14.293,61.621C367.88,266.925,362.555,270.003,357.018,270.003z M445,460H260
	v-60.557c103.298-7.7,185-94.211,185-199.443C445,89.72,355.28,0,245,0S45,89.72,45,200c0,105.232,81.702,191.744,185,199.443V460
	H45c-8.284,0-15,6.716-15,15s6.716,15,15,15h400c8.284,0,15-6.716,15-15S453.284,460,445,460z M75,200c0-93.738,76.262-170,170-170
	s170,76.262,170,170s-76.262,170-170,170S75,293.738,75,200z"/>
<g>
</g>
<g>
</g>
<g>
</g>
<g>
</g>
<g>
</g>
<g>
</g>
<g>
</g>
<g>
</g>
<g>
</g>
<g>
</g>
<g>
</g>
<g>
</g>
<g>
</g>
<g>
</g>
<g>
</g>
</svg>
