<?xml version="1.0" encoding="iso-8859-1"?>
<!-- Generator: Adobe Illustrator 16.0.0, SVG Export Plug-In . SVG Version: 6.00 Build 0)  -->
<!DOCTYPE svg PUBLIC "-//W3C//DTD SVG 1.1//EN" "http://www.w3.org/Graphics/SVG/1.1/DTD/svg11.dtd">
<svg version="1.1" id="Capa_1" xmlns="http://www.w3.org/2000/svg" xmlns:xlink="http://www.w3.org/1999/xlink" x="0px" y="0px"
	 width="46.251px" height="46.251px" viewBox="0 0 46.251 46.251" style="enable-background:new 0 0 46.251 46.251;"
	 xml:space="preserve">
<g>
	<g>
		<g>
			<path d="M26.322,8.521C26.322,3.822,22.514,0,17.816,0C13.118,0,9.31,3.823,9.31,8.521v19.141
				c-1.791,2.037-2.742,4.62-2.742,7.342c0,6.202,5.038,11.247,11.239,11.247c6.203,0,11.246-5.045,11.246-11.247
				c0-2.717-0.939-5.3-2.73-7.341V8.521L26.322,8.521z M17.8,43.229c-4.534,0-8.222-3.688-8.222-8.224
				c0-2.146,0.812-4.171,2.297-5.705c0.273-0.282,0.42-0.659,0.42-1.051V8.521c0-3.031,2.453-5.498,5.484-5.498
				c3.031,0,5.483,2.467,5.483,5.498v19.728c0,0.392,0.17,0.769,0.443,1.049c1.484,1.541,2.312,3.567,2.312,5.707
				C26.016,39.539,22.336,43.229,17.8,43.229z"/>
			<path d="M20.352,30.182v-6.931c0-1.392-1.145-2.52-2.537-2.52s-2.536,1.128-2.536,2.52v6.931
				c-1.642,0.899-2.813,2.668-2.813,4.701c0,2.946,2.388,5.333,5.334,5.333c2.945,0,5.349-2.388,5.349-5.333
				C23.15,32.85,21.994,31.082,20.352,30.182z"/>
			<path d="M31.115,5.639h7.055c0.836,0,1.514-0.694,1.514-1.53c0-0.835-0.678-1.53-1.514-1.53h-7.055
				c-0.835,0-1.512,0.695-1.512,1.53C29.604,4.944,30.28,5.639,31.115,5.639z"/>
			<path d="M38.169,9.667h-7.055c-0.835,0-1.512,0.657-1.512,1.492c0,0.836,0.677,1.493,1.512,1.493h7.055
				c0.836,0,1.514-0.657,1.514-1.493C39.682,10.324,39.005,9.667,38.169,9.667z"/>
			<path d="M38.169,16.681h-7.055c-0.835,0-1.512,0.694-1.512,1.529s0.677,1.529,1.512,1.529h7.055c0.836,0,1.514-0.694,1.514-1.529
				S39.005,16.681,38.169,16.681z"/>
			<path d="M38.169,23.769h-7.055c-0.835,0-1.512,0.658-1.512,1.493c0,0.836,0.677,1.492,1.512,1.492h7.055
				c0.836,0,1.514-0.656,1.514-1.492C39.682,24.427,39.005,23.769,38.169,23.769z"/>
		</g>
	</g>
</g>
<g>
</g>
<g>
</g>
<g>
</g>
<g>
</g>
<g>
</g>
<g>
</g>
<g>
</g>
<g>
</g>
<g>
</g>
<g>
</g>
<g>
</g>
<g>
</g>
<g>
</g>
<g>
</g>
<g>
</g>
</svg>
