<?xml version='1.0' encoding='iso-8859-1'?>
<!DOCTYPE svg PUBLIC '-//W3C//DTD SVG 1.1//EN' 'http://www.w3.org/Graphics/SVG/1.1/DTD/svg11.dtd'>
<svg version="1.1" xmlns="http://www.w3.org/2000/svg" viewBox="0 0 315 315" xmlns:xlink="http://www.w3.org/1999/xlink" enable-background="new 0 0 315 315">
  <g>
    <path d="M264.007,0H50.993C22.875,0,0,22.875,0,50.993v213.014C0,292.125,22.875,315,50.993,315h213.014   C292.125,315,315,292.125,315,264.007V50.993C315,22.875,292.125,0,264.007,0z M50.993,14h213.014   C284.405,14,301,30.595,301,50.993V91.83h-56.773c-24.047,0-30.855,10.063-36.862,18.94c-6.428,9.499-13.074,19.322-49.866,19.322   c-36.791,0-43.438-9.822-49.865-19.322c-6.007-8.878-12.815-18.94-36.863-18.94H14V50.993C14,30.595,30.595,14,50.993,14z    M264.007,301H50.993C30.595,301,14,284.405,14,264.007V105.83h56.77c16.617,0,20.059,5.087,25.269,12.786   c7.68,11.351,17.238,25.477,61.46,25.477c44.223,0,53.781-14.126,61.461-25.477c5.21-7.699,8.651-12.786,25.267-12.786H301v158.177   C301,284.405,284.405,301,264.007,301z"/>
    <path d="m127.082,97.148c1.212,2.296 3.595,3.733 6.191,3.733h17.336c0.008,0 0.016,0.002 0.023,0.002 0.009,0 0.017-0.002 0.025-0.002h31.068c2.597,0 4.98-1.438 6.191-3.733l24.226-45.915c1.418-2.689 0.939-5.986-1.187-8.16-0.68-0.697-17.107-17.073-53.455-17.073s-52.775,16.376-53.457,17.073c-2.126,2.174-2.605,5.471-1.187,8.16l24.226,45.915zm-.816-51.557l4.2,15.653c0.839,3.126 3.667,5.188 6.757,5.188 0.6,0 1.211-0.078 1.818-0.241 3.733-1.002 5.948-4.841 4.946-8.575l-4.29-15.987c3.262-0.632 6.855-1.117 10.803-1.387v15.758c0,3.866 3.134,7 7,7 3.866,0 7-3.134 7-7v-15.759c3.947,0.27 7.542,0.755 10.803,1.386l-4.29,15.988c-1.002,3.734 1.213,7.573 4.946,8.575 0.608,0.163 1.218,0.241 1.818,0.241 3.09,0 5.918-2.062 6.757-5.188l4.201-15.656c3.566,1.476 6.324,3.01 8.294,4.289l-19.524,37.005h-7.502l-5.996-15.114c-1.076-2.715-3.678-4.477-6.646-4.418-2.92,0.059-5.496,1.923-6.465,4.678l-5.223,14.854h-8.179l-19.522-37c1.976-1.282 4.733-2.817 8.294-4.29z"/>
  </g>
</svg>
