<?xml version="1.0" encoding="iso-8859-1"?>
<!-- Generator: Adobe Illustrator 16.0.0, SVG Export Plug-In . SVG Version: 6.00 Build 0)  -->
<!DOCTYPE svg PUBLIC "-//W3C//DTD SVG 1.1//EN" "http://www.w3.org/Graphics/SVG/1.1/DTD/svg11.dtd">
<svg version="1.1" id="Capa_1" xmlns="http://www.w3.org/2000/svg" xmlns:xlink="http://www.w3.org/1999/xlink" x="0px" y="0px"
	 width="93.849px" height="93.85px" viewBox="0 0 93.849 93.85" style="enable-background:new 0 0 93.849 93.85;"
	 xml:space="preserve">
<g fill="#023677">
		<polygon points="13.36,7.623 62.939,7.623 62.939,10.836 67.347,10.836 67.347,0 62.939,0 62.939,3.215 13.36,3.215 13.36,0 
			8.949,0 8.949,10.836 13.36,10.836 		"/>
		<polygon points="85.157,21.524 85.157,17.115 74.319,17.115 74.319,21.524 77.534,21.524 77.534,89.441 74.319,89.441 
			74.319,93.85 85.157,93.85 85.157,89.441 81.943,89.441 81.943,21.524 		"/>
		<path d="M8.693,93.85h58.912V17.115H8.693V93.85z M13.47,21.893h49.358v67.182H13.47V21.893z"/>
</g>
</svg>
