<?xml version="1.0" encoding="iso-8859-1"?>
<!-- Generator: Adobe Illustrator 16.0.0, SVG Export Plug-In . SVG Version: 6.00 Build 0)  -->
<!DOCTYPE svg PUBLIC "-//W3C//DTD SVG 1.1//EN" "http://www.w3.org/Graphics/SVG/1.1/DTD/svg11.dtd">
<svg version="1.1" id="Capa_1" xmlns="http://www.w3.org/2000/svg" xmlns:xlink="http://www.w3.org/1999/xlink" x="0px" y="0px"
	 width="362.485px" height="362.485px" viewBox="0 0 362.485 362.485" style="enable-background:new 0 0 362.485 362.485;"
	 xml:space="preserve">
<g fill="#0066CC">
	<g>
		<g>
			<path d="M187.566,224.456c8.238,0,14.939-6.713,14.939-14.97c0-8.221-6.689-14.91-14.919-14.91l-37.584-27.265l-6.314,6.594
				l28.937,36.031l0.036,0.486C173.13,218.295,179.679,224.456,187.566,224.456z"/>
		</g>
		<g>
			<path d="M181.234,14.661C81.296,14.661,0,95.954,0,195.879c0,34.875,9.944,68.748,28.778,97.943l1.357,2.103h22.542
				l30.555-26.686l-13.195-15.145l-29.805,26.019l-0.97-1.639c-14.679-25.1-22.425-53.671-22.425-82.602
				c0-0.841,0.048-1.64,0.141-2.679l0.117-3.044l36.29-0.043v-20.085H19.032l0.312-1.85c4.753-28.027,16.702-54.385,34.552-76.228
				l1.107-1.354l25.583,25.556l14.241-14.168L68.923,76.062l1.219-1.114c26.679-24.527,59.631-39.284,95.314-42.679l1.727-0.159
				l0.024,41.904h20.071V31.783l1.648,0.081c39.568,1.838,77.099,17.861,105.688,45.132l1.159,1.102l-26.481,26.538l14.22,14.192
				l25.809-25.833l1.104,1.402c16.826,21.386,28.15,46.903,32.715,73.787l0.312,1.843l-35.681,0.027v20.09h37.633l0.138,3.23
				c0.054,0.84,0.108,1.663,0.108,2.504c0,28.816-7.681,57.243-22.206,82.241l-1.032,1.777l-28.085-28.061l-14.177,14.214
				l29.855,29.874h22.35l1.369-2.114c18.819-29.219,28.763-63.086,28.763-97.938C362.485,95.954,281.181,14.661,181.234,14.661z"/>
		</g>
		<g>
			<rect x="100.46" y="327.053" width="161.559" height="20.771"/>
		</g>
	</g>
</g>
</svg>
