<?xml version="1.0"?>
<svg xmlns="http://www.w3.org/2000/svg" viewBox="0 0 32 32">
<g fill="#0066CC">
    <path style="text-indent:0;text-align:start;line-height:normal;text-transform:none;block-progression:tb;-inkscape-font-specification:Bitstream Vera Sans" d="M 5 5 L 5 6 L 5 6.09375 L 5 6.34375 L 5.09375 6.5625 L 8 12.28125 L 8 24 C 8 25.64497 9.3550302 27 11 27 L 20 27 C 21.64497 27 23 25.64497 23 24 L 23 7 L 24 7 C 24.56503 7 25 7.4349698 25 8 L 25 16 L 27 16 L 27 8 C 27 6.3550302 25.64497 5 24 5 L 23 5 L 22 5 L 6 5 L 5 5 z M 7.59375 7 L 21 7 L 21 9 L 17 9 L 17 11 L 21 11 L 21 13 L 19 13 L 19 15 L 21 15 L 21 17 L 17 17 L 17 19 L 21 19 L 21 21 L 19 21 L 19 23 L 21 23 L 21 24 C 21 24.56503 20.56503 25 20 25 L 11 25 C 10.43497 25 10 24.56503 10 24 L 10 12 L 10 11.75 L 9.90625 11.53125 L 7.59375 7 z" overflow="visible" font-family="Bitstream Vera Sans"/>
	</g>
</svg>
