<?xml version="1.0" standalone="no"?>
<!DOCTYPE svg PUBLIC "-//W3C//DTD SVG 20010904//EN"
 "http://www.w3.org/TR/2001/REC-SVG-20010904/DTD/svg10.dtd">
<svg version="1.0" xmlns="http://www.w3.org/2000/svg"
 width="700.000000pt" height="700.000000pt" viewBox="0 0 700.000000 700.000000"
 preserveAspectRatio="xMidYMid meet">
<metadata>
Created by potrace 1.11, written by Peter Selinger 2001-2013
</metadata>
<g transform="translate(0.000000,700.000000) scale(0.100000,-0.100000)"
fill="#000000" stroke="none">
<path d="M678 6990 c-191 -32 -373 -139 -498 -292 -56 -69 -129 -209 -157
-303 -17 -57 -18 -201 -20 -2858 -3 -2739 -3 -2800 16 -2893 60 -292 284 -529
586 -620 57 -18 188 -19 2850 -22 1907 -2 2812 1 2858 8 285 44 543 256 638
526 52 148 49 -2 49 2964 0 2959 2 2819 -49 2964 -78 222 -277 417 -501 490
-41 14 -102 30 -134 35 -71 13 -5564 13 -5638 1z m2034 -2309 l3 -1279 720
693 720 694 365 0 365 0 -80 -77 c-69 -66 -1107 -1054 -1158 -1102 -18 -16 7
-59 621 -1042 351 -563 644 -1034 651 -1046 l12 -22 -303 0 -303 0 -530 860
c-292 473 -533 859 -536 857 -4 -1 -131 -119 -283 -262 l-276 -260 0 -597 0
-598 -250 0 -250 0 0 2230 0 2230 255 0 255 0 2 -1279z"/>
</g>
</svg>
